HIERARCHY
ROOT Hips
{
	OFFSET 0.000000 0.000000 0.000000 
	CHANNELS 6 Xposition Yposition Zposition Zrotation Yrotation Xrotation
	JOINT LeftUpLeg
	{
		OFFSET 1.363060 -1.794630 0.839290 
		CHANNELS 3 Zrotation Yrotation Xrotation
		JOINT LeftLeg
		{
			OFFSET 2.448110 -6.726130 0.000000 
			CHANNELS 3 Zrotation Yrotation Xrotation
			JOINT LeftFoot
			{
				OFFSET 2.562200 -7.039590 0.000000 
				CHANNELS 3 Zrotation Yrotation Xrotation
				JOINT LeftToeBase
				{
					OFFSET 0.157640 -0.433110 2.322550 
					CHANNELS 3 Zrotation Yrotation Xrotation
					End Site
					{
						OFFSET 0.000000 0.000000 0.000000 
					}
				}
			}
		}
	}
	JOINT RightUpLeg
	{
		OFFSET -1.305520 -1.794630 0.839290 
		CHANNELS 3 Zrotation Yrotation Xrotation
		JOINT RightLeg
		{
			OFFSET -2.542530 -6.985550 0.000000 
			CHANNELS 3 Zrotation Yrotation Xrotation
			JOINT RightFoot
			{
				OFFSET -2.568260 -7.056230 0.000000 
				CHANNELS 3 Zrotation Yrotation Xrotation
				JOINT RightToeBase
				{
					OFFSET -0.164730 -0.452590 2.363150 
					CHANNELS 3 Zrotation Yrotation Xrotation
					End Site
					{
						OFFSET 0.000000 0.000000 0.000000 
					}
				}
			}
		}
	}
	JOINT Spine
	{
		OFFSET 0.028270 2.035590 -0.193380 
		CHANNELS 3 Zrotation Yrotation Xrotation
		JOINT Spine1
		{
			OFFSET 0.056720 2.048850 -0.042750 
			CHANNELS 3 Zrotation Yrotation Xrotation
			JOINT Neck1
			{
				OFFSET -0.054170 1.746240 0.172020 
				CHANNELS 3 Zrotation Yrotation Xrotation
				JOINT Head
				{
					OFFSET 0.104070 1.761360 -0.123970 
					CHANNELS 3 Zrotation Yrotation Xrotation
					End Site
					{
						OFFSET 0.000000 0.000000 0.000000 
					}
				}
			}
			JOINT LeftArm
			{
				OFFSET 3.362410 1.200890 -0.311210 
				CHANNELS 3 Zrotation Yrotation Xrotation
				JOINT LeftForeArm
				{
					OFFSET 4.983000 -0.000000 -0.000000 
					CHANNELS 3 Zrotation Yrotation Xrotation
					JOINT LeftHand
					{
						OFFSET 3.483560 -0.000000 -0.000000 
						CHANNELS 3 Zrotation Yrotation Xrotation
						JOINT LeftHandIndex1
						{
							OFFSET 0.715260 -0.000000 -0.000000 
							CHANNELS 3 Zrotation Yrotation Xrotation
							End Site
							{
								OFFSET 0.000000 0.000000 0.000000 
							}
						}
					}
				}
			}
			JOINT RightArm
			{
				OFFSET -3.136600 1.374050 -0.404650 
				CHANNELS 3 Zrotation Yrotation Xrotation
				JOINT RightForeArm
				{
					OFFSET -5.241900 -0.000000 -0.000000 
					CHANNELS 3 Zrotation Yrotation Xrotation
					JOINT RightHand
					{
						OFFSET -3.444170 -0.000000 -0.000000 
						CHANNELS 3 Zrotation Yrotation Xrotation
						JOINT RightHandIndex1
						{
							OFFSET -0.622530 -0.000000 -0.000000 
							CHANNELS 3 Zrotation Yrotation Xrotation
							End Site
							{
								OFFSET 0.000000 0.000000 0.000000 
							}
						}
					}
				}
			}
		}
	}
}
MOTION
Frames: 7
Frame Time: 0.041667
-0.787500 17.358973 -10.989751 3.949621 6.897783 1.203310 -8.731213 3.631656 -7.844705 1.054519 9.603073 27.781204 1.200484 -3.314096 -4.231988 2.995600 -10.688000 -31.234600 15.382986 6.803218 -1.445851 -1.719875 -10.360086 29.644040 1.993355 -21.621888 -28.584926 -0.031700 1.148600 -3.157700 0.341759 3.018566 -5.556457 0.631183 1.471030 3.850380 7.213904 -1.923191 -7.696039 2.222000 -0.846600 -1.235800 -13.779233 11.635075 -14.350916 18.151383 -21.902645 -5.368688 -2.275681 -0.295450 -17.244471 -7.125000 0.000000 0.000000 10.789044 -17.318369 -38.565143 -13.832832 15.358263 -3.570943 2.151577 1.054036 13.457853 7.125000 0.000000 0.000000 
-0.727260 17.348376 -11.077865 3.623067 6.463415 1.190165 -9.368853 3.856294 -7.591502 0.937679 9.327156 26.898606 0.298750 1.195024 -7.087505 2.997300 -10.690700 -31.243600 15.256123 6.470024 -2.182999 -1.770756 -10.465770 29.904957 1.944953 -20.976356 -27.810563 -0.030200 1.121000 -3.081900 0.483854 3.143177 -5.526261 0.968072 1.532705 3.912553 6.645467 -1.193769 -7.801177 1.795500 -0.583200 -1.218500 -15.302866 11.985903 -14.940667 17.507721 -21.171578 -5.106817 -2.315197 -0.241193 -16.353723 -7.125000 0.000000 0.000000 8.954916 -17.055454 -37.822062 -14.225681 15.978884 -3.759873 2.239790 1.051991 12.123511 7.125000 0.000000 0.000000 
-0.660454 17.345151 -11.175770 3.551388 6.059158 1.304771 -10.142688 4.346378 -7.613424 0.786414 9.045168 26.004281 -0.162322 3.384779 -8.711464 2.603200 -10.023100 -29.051700 14.784203 6.110261 -3.138676 -1.844229 -10.601222 30.264089 1.894747 -20.263957 -26.951003 -0.027500 1.071300 -2.944900 0.620364 3.219608 -5.505565 1.345653 1.573689 3.854374 6.009123 -0.366404 -8.094212 1.333300 -0.289300 -1.336800 -16.755071 12.634687 -14.875784 16.890396 -20.513849 -4.883841 -2.380444 -0.227261 -16.293989 -7.125000 0.000000 0.000000 7.181569 -16.785560 -36.920265 -14.845262 16.802291 -3.908480 2.071948 1.242131 10.285923 7.125000 0.000000 0.000000 
-0.598140 17.333633 -11.280240 3.720938 5.865873 1.456085 -10.949478 4.409785 -7.601104 0.624843 8.788279 25.171458 -0.413457 4.601128 -9.779771 2.299200 -9.463400 -27.255900 14.129719 5.876630 -4.065545 -1.936582 -10.762055 30.724187 1.856576 -19.794708 -26.447954 -0.022400 0.965900 -2.655000 0.742824 3.188343 -5.490624 1.767266 1.557996 3.755792 5.354690 0.482643 -8.373005 0.867100 0.008800 -1.409800 -18.051590 13.364196 -14.879239 16.211150 -19.792299 -4.652312 -2.465230 -0.223147 -16.576710 -7.125000 0.000000 0.000000 5.645936 -16.558435 -35.894914 -15.649820 17.796602 -4.077088 1.870473 1.267306 8.136836 7.125000 0.000000 0.000000 
-0.539974 17.316817 -11.389087 4.073228 5.949443 1.622771 -11.695161 3.908119 -7.511476 0.471629 8.575327 24.454812 -0.645368 5.651978 -10.431134 2.261600 -9.391000 -27.026200 13.381648 5.907002 -4.872602 -2.041660 -10.942958 31.264596 1.833978 -19.622363 -26.375237 -0.009400 0.627400 -1.724000 0.827549 3.147542 -5.470901 2.110341 1.542612 3.609100 4.610132 1.247409 -8.711814 0.333100 0.248300 -1.549100 -19.124532 13.760206 -15.369999 15.502696 -19.017671 -4.393728 -2.531749 -0.255178 -16.840502 -7.125000 0.000000 0.000000 4.518627 -16.902564 -34.534639 -16.538130 19.089615 -4.530692 2.074171 1.080054 5.424906 7.125000 0.000000 0.000000 
-0.484110 17.307487 -11.500698 4.712802 6.275714 1.828413 -12.547715 3.624521 -7.674278 0.340878 8.420119 23.894323 -0.690646 5.828104 -10.388408 2.343500 -9.547600 -27.523900 12.348179 5.958586 -5.651396 -2.161316 -11.126423 31.845741 1.808473 -19.477810 -26.394386 -0.002000 0.290500 -0.798200 0.872649 3.091440 -5.461697 2.462764 1.520332 3.373943 4.085715 1.747695 -9.201958 0.045400 0.420200 -1.782700 -20.094494 13.895186 -16.191466 14.934173 -18.354307 -4.179403 -2.575950 -0.301660 -17.222010 -7.125000 0.000000 0.000000 3.676792 -17.466168 -33.555966 -17.492465 20.336699 -4.928824 2.071528 0.998188 3.979007 7.125000 0.000000 0.000000 
-0.429859 17.308408 -11.614153 5.388259 6.686830 2.062505 -13.363295 3.867274 -8.225759 0.247344 8.324548 23.509716 -0.608852 5.392651 -9.803204 2.448600 -9.743800 -28.151200 11.314757 6.050487 -6.381026 -2.273727 -11.287148 32.373129 1.773521 -19.325217 -26.470345 -0.000100 0.074100 -0.203700 0.913510 2.969417 -5.465772 2.799807 1.462248 3.122619 3.713616 2.103924 -9.631728 -0.086200 0.563400 -1.905000 -21.134958 13.961185 -17.772611 14.543892 -17.845363 -4.040856 -2.620889 -0.333537 -17.309679 -7.125000 0.000000 0.000000 3.028412 -17.807167 -33.360453 -18.366329 21.400278 -5.286762 2.028661 0.979232 3.835660 7.125000 0.000000 0.000000 
